<svg width="1682" height="388" viewBox="0 0 1682 388" fill="none" xmlns="http://www.w3.org/2000/svg">
<g clip-path="url(#clip0_382_7)">
<path d="M163.584 381.176H0V235.129H225.348V318.041C225.348 352.854 197.646 381.19 163.584 381.19V381.176ZM10.8739 370.059H163.584C191.639 370.059 214.474 346.725 214.474 318.027V246.233H10.8739V370.045V370.059Z" fill="#FFDE15"/>
<path d="M225.348 192.826H0V109.914C0 75.1012 27.7012 46.7645 61.7636 46.7645H225.348V192.812V192.826ZM10.8739 181.708H214.474V57.8963H61.7636C33.709 57.8963 10.8739 81.2299 10.8739 109.928V181.722V181.708Z" fill="#FFDE15"/>
<path d="M353.768 283.784C343.791 283.784 334.304 282.352 325.319 279.503C316.335 276.654 308.152 272.457 300.772 266.954C293.391 261.437 287.193 255.016 282.204 247.665L313.345 222.26C319.937 230.835 327.059 237.103 334.752 241.091C342.432 245.066 349.677 247.067 356.459 247.067C365.444 247.067 372.73 244.565 378.316 239.562C383.902 234.559 386.702 228.083 386.702 220.12C386.702 213.991 384.908 208.905 381.32 204.819C377.732 200.733 373.178 197.162 367.7 194.104C362.209 191.047 356.364 187.878 350.18 184.612C343.995 181.346 338.096 177.525 332.51 173.133C326.923 168.742 322.37 163.085 318.89 156.137C315.397 149.202 313.644 140.419 313.644 129.815C313.644 116.14 316.743 104.105 322.927 93.6959C329.112 83.2868 337.743 75.2263 348.821 69.5145C359.898 63.8027 372.526 60.9398 386.702 60.9398C400.879 60.9398 414.254 63.9555 425.631 69.9731C437.008 75.9906 445.788 83.4952 451.973 92.4729L420.534 118.183C415.342 111.248 409.796 106.092 403.91 102.729C398.025 99.366 391.786 97.6844 385.194 97.6844C376.413 97.6844 369.277 100.089 363.786 104.883C358.294 109.678 355.549 115.959 355.549 123.714C355.549 129.843 357.343 134.846 360.931 138.709C364.52 142.587 369.168 146.005 374.85 148.966C380.545 151.926 386.526 154.941 392.819 157.999C399.112 161.056 405.093 164.781 410.788 169.172C416.483 173.564 421.064 179.276 424.557 186.322C428.05 193.368 429.79 202.192 429.79 212.796C429.79 226.68 426.596 238.965 420.208 249.68C413.819 260.395 404.889 268.761 393.417 274.778C381.932 280.796 368.72 283.812 353.741 283.812L353.768 283.784Z" fill="#FFDE15"/>
<path d="M425.916 279.49L548.982 65.2064H601.978L622.339 279.49H579.823L565.442 97.9624H572.931L473.53 279.49H425.916Z" fill="#FFDE15"/>
<path d="M470.228 229.904L492.696 193.479H596.881L602.277 229.904H470.228Z" fill="#FFDE15"/>
<path d="M513.873 303.198L519.636 279.49H545.257L539.494 303.198H513.873Z" fill="#FFDE15"/>
<path d="M738.799 284.089C725.818 284.089 713.952 281.894 703.173 277.502C692.394 273.111 683.111 266.843 675.322 258.671C667.534 250.513 661.499 240.605 657.204 228.973C652.909 217.34 650.761 204.277 650.761 189.782C650.761 173.05 653.452 156.984 658.849 141.572C664.231 126.16 672.02 112.332 682.2 100.089C692.381 87.845 704.75 78.2003 719.321 71.1543C733.892 64.1084 750.352 60.5923 768.729 60.5923C784.7 60.5923 798.374 63.4969 809.751 69.3199C821.128 75.1429 830.71 82.842 838.499 92.4312L804.966 123.353C799.176 116.21 792.842 111.109 785.951 108.052C779.059 104.994 771.733 103.466 763.945 103.466C754.158 103.466 745.133 105.509 736.855 109.594C728.564 113.68 721.183 119.336 714.7 126.591C708.216 133.831 703.173 142.253 699.585 151.842C695.996 161.431 694.202 171.841 694.202 183.07C694.202 195.313 696.295 205.778 700.495 214.45C704.682 223.122 710.472 229.751 717.867 234.351C725.247 238.937 733.729 241.244 743.311 241.244C750.298 241.244 757.38 239.924 764.57 237.269C771.76 234.615 779.345 230.223 787.323 224.109L808.582 259.922C799.597 267.885 788.873 273.903 776.395 277.989C763.917 282.074 751.399 284.117 738.826 284.117L738.799 284.089Z" fill="#FFDE15"/>
<path d="M932.517 279.489C925.136 279.489 918.789 277.599 913.501 273.819C908.214 270.039 904.422 264.995 902.124 258.671C899.827 252.348 899.583 245.413 901.377 237.853L942.698 65.1924H985.214L945.389 230.196C944.791 233.058 945.035 235.199 946.136 236.63C947.237 238.061 949.181 238.77 951.968 238.77H1029.81L1020.23 279.489H932.503H932.517Z" fill="#FFDE15"/>
<path d="M1124.13 283.784C1105.56 283.784 1090.49 280.115 1078.92 272.763C1067.34 265.411 1059.46 255.155 1055.27 241.994C1051.08 228.834 1051.08 213.477 1055.27 195.925L1086.71 65.2063H1129.23L1096.59 199.899C1094.39 209.697 1094.39 217.91 1096.59 224.539C1098.78 231.168 1102.73 236.019 1108.42 239.076C1114.1 242.133 1120.84 243.662 1128.63 243.662C1140.19 243.662 1149.33 240.09 1156.03 232.947C1162.72 225.804 1167.75 215.186 1171.14 201.108L1203.78 65.1924H1246.3L1211.87 209.377C1207.68 226.318 1201.89 240.299 1194.5 251.32C1187.12 262.34 1177.68 270.512 1166.2 275.807C1154.71 281.115 1140.7 283.77 1124.13 283.77V283.784Z" fill="#FFDE15"/>
<path d="M1341.5 283.784C1330.91 283.784 1320.39 282.144 1309.91 278.892C1299.43 275.626 1289.85 270.373 1281.16 263.132C1272.48 255.892 1265.54 246.4 1260.35 234.657C1255.16 222.927 1252.56 208.585 1252.56 191.644C1252.56 173.078 1255.46 155.831 1261.25 139.905C1267.04 123.992 1275.13 110.109 1285.5 98.2681C1295.87 86.4276 1308.05 77.2553 1322.02 70.7097C1335.99 64.1779 1351.16 60.9121 1367.53 60.9121C1385.09 60.9121 1400.52 64.6921 1413.78 72.2384C1427.05 79.7847 1437.38 90.3466 1444.77 103.924C1452.15 117.502 1455.85 133.567 1455.85 152.134C1455.85 173.981 1452.56 193.104 1445.97 209.53C1439.38 225.957 1430.6 239.688 1419.63 250.708C1408.64 261.729 1396.37 269.998 1382.8 275.501C1369.23 281.018 1355.46 283.77 1341.48 283.77L1341.5 283.784ZM1343.31 241.842C1351.88 241.842 1360.27 240.007 1368.45 236.338C1376.63 232.669 1384.01 227.208 1390.61 219.967C1397.2 212.727 1402.43 203.582 1406.32 192.576C1410.21 181.555 1412.15 168.797 1412.15 154.316C1412.15 138.807 1407.81 126.41 1399.13 117.127C1390.44 107.843 1379.12 103.202 1365.15 103.202C1355.36 103.202 1346.28 105.3 1337.9 109.483C1329.51 113.666 1322.18 119.531 1315.89 127.091C1309.61 134.637 1304.7 143.573 1301.22 153.871C1297.73 164.183 1295.98 175.357 1295.98 187.392C1295.98 197.398 1297.38 205.861 1300.16 212.796C1302.95 219.731 1306.61 225.345 1311.09 229.64C1315.58 233.92 1320.62 237.033 1326.21 238.979C1331.79 240.924 1337.47 241.883 1343.28 241.883L1343.31 241.842ZM1328.92 46.8341L1374.43 0H1417.85L1440.3 46.8341H1401.97L1382.21 11.3263H1405.86L1369.63 46.8341H1328.91H1328.92Z" fill="#FFDE15"/>
<path d="M1463.96 279.49L1515.47 65.2064H1553.5L1613.39 229.904L1598.42 232.961L1638.84 65.2064H1681.36L1629.86 279.49H1592.74L1532.85 116.627L1546.32 113.569L1506.49 279.49H1463.98H1463.96Z" fill="#FFDE15"/>
<path d="M709.331 375.617V365.222C709.331 360.581 712.362 357.481 716.902 357.481H740.743C748.314 357.481 752.418 352.715 752.418 348.393V347.156C752.418 342.889 748.3 338.053 740.743 338.053H709.331V332.299H741.341C754.172 332.299 758.345 341.583 758.345 347.156V348.393C758.345 354.146 753.873 363.249 741.341 363.249H718.709C716.711 363.249 715.379 364.611 715.379 366.654V375.631H709.331V375.617Z" fill="#FFDE15"/>
<path d="M771.665 332.299V375.617H765.617V332.299H771.665Z" fill="#FFDE15"/>
<path d="M786.195 375.617H780.147V332.299H790.681C795.221 332.299 799.638 335.023 801.759 339.165L815.5 366.39C816.411 368.182 818.341 369.419 820.339 369.419H826.143V332.299H832.192V375.617H821.658C817.118 375.617 812.7 372.894 810.58 368.752L796.838 341.527C795.927 339.665 793.997 338.498 791.999 338.498H786.195V375.617Z" fill="#FFDE15"/>
<path d="M868.198 352.353H870.917V340.04C870.917 335.399 873.948 332.299 878.487 332.299H902.396C914.983 332.244 923.886 341.083 923.886 353.646V354.202C923.886 366.765 914.997 375.617 902.396 375.617H878.487C873.948 375.617 870.917 372.518 870.917 367.877V356.245H868.198C867.165 356.245 866.689 355.744 866.689 354.702V353.896C866.689 352.84 867.179 352.353 868.198 352.353ZM917.878 354.202V353.646C917.878 344.613 911.408 338.234 902.328 338.234H880.295C878.297 338.234 876.965 339.596 876.965 341.638V352.339H884.89C885.923 352.339 886.398 352.84 886.398 353.882V354.688C886.398 355.744 885.909 356.231 884.89 356.231H876.965V366.195C876.965 368.238 878.297 369.6 880.295 369.6H902.328C911.408 369.656 917.878 363.221 917.878 354.188V354.202Z" fill="#FFDE15"/>
<path d="M929.921 354.271V353.646C929.921 340.777 938.81 332.299 951.41 332.299H970.168C982.754 332.299 991.657 340.777 991.657 353.646V354.271C991.657 367.14 982.768 375.617 970.168 375.617H951.41C938.824 375.617 929.921 367.14 929.921 354.271ZM985.663 354.271V353.646C985.663 344.362 979.248 338.428 970.168 338.428H951.41C942.331 338.428 935.915 344.362 935.915 353.646V354.271C935.915 363.555 942.331 369.489 951.41 369.489H970.168C979.248 369.489 985.663 363.555 985.663 354.271ZM957.758 325.059C957.758 320.417 964.106 322.029 964.106 319.055C964.106 317.999 963.616 317.749 962.475 317.749H955.026V314.844H962.774C965.383 314.844 967.436 316.637 967.436 319.111C967.436 323.377 960.775 322.266 960.775 325.295V326.713H957.744V325.045L957.758 325.059Z" fill="#FFDE15"/>
<path d="M998.916 372.518C998.916 370.656 1000.13 369.419 1001.95 369.419H1002.07C1003.82 369.475 1004.98 370.726 1004.98 372.518C1004.98 374.186 1003.4 378.147 1002.31 379.94H1000.74L1001.95 375.604C1001.95 375.604 998.916 375.604 998.916 372.504V372.518Z" fill="#FFDE15"/>
<path d="M1043.7 344.932C1043.7 336.079 1051.33 332.313 1057.8 332.313H1093.8V338.498H1057.8C1054.05 338.498 1050.05 340.596 1050.05 344.932C1050.05 349.268 1054.22 350.811 1057.8 350.811L1079.71 350.866C1086.18 350.866 1093.8 354.146 1093.8 362.999C1093.8 371.851 1086.18 375.617 1079.71 375.617H1043.7V369.433H1079.71C1083.46 369.433 1087.46 367.335 1087.46 362.999C1087.46 358.663 1083.28 357.064 1079.71 357.064H1057.8C1051.33 357.064 1043.7 353.785 1043.7 344.932Z" fill="#FFDE15"/>
<path d="M1151.72 375.617L1140.52 342.889C1139.61 340.235 1137.19 338.498 1134.47 338.498H1124.6C1121.89 338.498 1119.45 340.235 1118.56 342.889L1107.36 375.617H1101.06L1113.4 339.609C1114.86 335.218 1118.91 332.313 1123.45 332.313H1135.61C1140.15 332.313 1144.2 335.218 1145.66 339.609L1158 375.617H1151.71H1151.72ZM1126.18 384.595C1126.18 382.497 1127.57 381.135 1129.57 381.135H1129.69C1131.69 381.135 1133.07 382.497 1133.07 384.595C1133.07 386.694 1131.69 388 1129.69 388H1129.57C1127.57 388 1126.18 386.638 1126.18 384.595Z" fill="#FFDE15"/>
<path d="M1161.05 354.271V353.646C1161.05 340.777 1169.93 332.299 1182.53 332.299H1213.04V338.428H1182.53C1173.46 338.428 1167.04 344.362 1167.04 353.646V354.271C1167.04 363.555 1173.46 369.489 1182.53 369.489H1213.04V375.617H1182.53C1169.95 375.617 1161.05 367.14 1161.05 354.271Z" fill="#FFDE15"/>
<path d="M1257.82 332.299V369.419H1294.92V375.604H1251.76V332.286H1257.81L1257.82 332.299Z" fill="#FFDE15"/>
<path d="M1302.17 358.607V332.313H1308.17V358.927C1308.17 365.431 1311.32 370.434 1319.42 370.434H1339.39C1347.56 370.434 1350.65 365.361 1350.65 358.927V332.313H1356.64V358.607C1356.64 369.127 1351.43 376.243 1339.39 376.243H1319.42C1307.38 376.243 1302.17 369.183 1302.17 358.607Z" fill="#FFDE15"/>
<path d="M1363.91 354.271V353.646C1363.91 340.777 1372.8 332.299 1385.4 332.299H1404.16C1416.74 332.299 1425.65 340.777 1425.65 353.646V354.271C1425.65 367.14 1416.76 375.617 1404.16 375.617H1385.4C1372.81 375.617 1363.91 367.14 1363.91 354.271ZM1419.64 354.271V353.646C1419.64 344.362 1413.22 338.428 1404.14 338.428H1385.39C1376.31 338.428 1369.89 344.362 1369.89 353.646V354.271C1369.89 363.554 1376.31 369.489 1385.39 369.489H1404.14C1413.22 369.489 1419.64 363.554 1419.64 354.271ZM1394.41 321.904L1390.24 326.171H1385.7L1392.54 319.236H1397.01L1403.85 326.171H1399.31L1395.13 321.904H1394.41Z" fill="#FFDE15"/>
<path d="M1438.95 375.617H1432.91V332.299H1443.44C1447.98 332.299 1452.4 335.023 1454.52 339.165L1468.26 366.39C1469.17 368.182 1471.1 369.419 1473.1 369.419H1478.9V332.299H1484.95V375.617H1474.42C1469.88 375.617 1465.46 372.894 1463.34 368.752L1449.6 341.527C1448.69 339.665 1446.76 338.498 1444.76 338.498H1438.95V375.617Z" fill="#FFDE15"/>
<path d="M1529.72 332.299V369.419H1566.82V375.604H1523.66V332.286H1529.71L1529.72 332.299Z" fill="#FFDE15"/>
<path d="M1569.85 354.271V353.646C1569.85 340.777 1578.74 332.299 1591.34 332.299H1610.1C1622.68 332.299 1631.59 340.777 1631.59 353.646V354.271C1631.59 367.14 1622.7 375.617 1610.1 375.617H1591.34C1578.75 375.617 1569.85 367.14 1569.85 354.271ZM1625.59 354.271V353.646C1625.59 344.362 1619.18 338.428 1610.1 338.428H1591.34C1582.26 338.428 1575.84 344.362 1575.84 353.646V354.271C1575.84 363.555 1582.26 369.489 1591.34 369.489H1610.1C1619.18 369.489 1625.59 363.555 1625.59 354.271Z" fill="#FFDE15"/>
<path d="M5.4369 375.617L94.9561 240.688L26.0701 186.558L219.911 52.3373L130.391 187.267L199.277 241.397L5.4369 375.617Z" fill="#FFDE15"/>
</g>
<defs>
<clipPath id="clip0_382_7">
<rect width="1681.33" height="388" fill="white"/>
</clipPath>
</defs>
</svg>
